<?xml version="1.0" encoding="utf-8"?>
<!-- Generator: Adobe Illustrator 19.0.0, SVG Export Plug-In . SVG Version: 6.00 Build 0)  -->
<svg version="1.1" id="Layer_1" xmlns="http://www.w3.org/2000/svg" xmlns:xlink="http://www.w3.org/1999/xlink" x="0px" y="0px"
	 viewBox="-354 117 500 500" style="enable-background:new -354 117 500 500;" xml:space="preserve">
<style type="text/css">
	.st0{fill:#FFFFFF;}
	.st1{fill:#333333;}
</style>
<circle class="st0" cx="-104" cy="367" r="250"/>
<path class="st1" d="M-138.5,350c4.8,4.8,12.6,4.8,17.3,0c4.8-4.8,4.8-12.6,0.1-17.4l-87.8-87.7c-4.8-4.8-12.6-4.8-17.3,0
	c-1.4,1.4-2.5,3.2-3,5.1c-0.4,1.2-0.7,2.5-0.7,3.8v226.2c0,2.8,1,5.4,2.6,7.5c0.3,0.4,0.7,0.9,1.1,1.3c1.3,1.3,2.9,2.3,4.6,2.8
	c0.2,0.1,0.3,0.2,0.6,0.2h0.1c1.1,0.3,2.3,0.5,3.4,0.5c1.2,0,2.3-0.2,3.4-0.5h0.1c0.2-0.1,0.4-0.2,0.6-0.2c1.7-0.6,3.3-1.5,4.6-2.8
	l87.2-87.3c4.8-4.8,4.8-12.6,0-17.3c-4.8-4.7-12.5-4.7-17.3,0.1l-34.8,34.8c-11.6,11.6-31.4,3.4-31.4-13v-78.2
	c0-16.4,19.8-24.6,31.4-13L-138.5,350z"/>
<path class="st1" d="M21.9,254.1c0-1.5-0.3-3-0.8-4.3c-0.1-0.2-0.1-0.3-0.2-0.4s-0.1-0.3-0.2-0.3c-0.6-1.3-1.4-2.5-2.4-3.6
	c-0.3-0.3-0.6-0.6-0.9-0.8c-2.2-1.8-4.9-2.8-7.8-2.8c-3.8,0-7.1,1.7-9.3,4.3l-86.5,86.6c-4.8,4.8-4.8,12.6,0,17.3s12.6,4.8,17.3,0
	l34.7-34.7c11.6-11.6,31.4-3.4,31.4,13v77.9c0,16.4-19.8,24.6-31.4,13L-69,384.5c-4.8-4.8-12.6-4.8-17.3,0s-4.8,12.6,0,17.3
	l86.5,86.5c2.3,2.7,5.7,4.3,9.3,4.3c0.8,0,1.6-0.1,2.3-0.3H12c0.1,0,0.1,0,0.2,0c2.3-0.5,4.4-1.6,6.2-3.3c1.9-1.9,3.1-4.4,3.4-7
	c0.1-0.6,0.2-1.1,0.2-1.7L21.9,254.1L21.9,254.1z"/>
<path class="st1" d="M-112.4,358.6c-4.8,4.8-4.8,12.6,0,17.3c4.8,4.8,12.6,4.8,17.3,0c4.8-4.8,4.8-12.6,0-17.3
	C-99.8,353.9-107.7,353.9-112.4,358.6z"/>
</svg>
